<?xml version="1.0" encoding="UTF-8"?>
<!DOCTYPE svg PUBLIC "-//W3C//DTD SVG 1.1//EN" "http://www.w3.org/Graphics/SVG/1.1/DTD/svg11.dtd">
<svg version="1.1" xmlns="http://www.w3.org/2000/svg" xmlns:xlink="http://www.w3.org/1999/xlink" x="0px" y="0px" width="128" height="128" viewBox="0, 0, 128, 128">
  <g id="Background">
    <rect x="0" y="0" width="128" height="128" fill="#000000" fill-opacity="0"/>
  </g>
  <g id="Background">
    <path d="M18.093,6 L109.905,6 C116.559,6 122,11.439 122,18.093 L122,109.907 C122,116.561 116.559,122 109.905,122 L18.093,122 C11.439,122 6,116.561 6,109.907 L6,18.093 C6,11.439 11.439,6 18.093,6" fill="#727272"/>
    <path d="M18.417,6 L26.076,6 C25.902,7.471 25.81,8.969 25.81,10.485 C25.81,31.575 42.909,48.674 64,48.674 C85.089,48.674 102.188,31.575 102.188,10.485 C102.188,8.969 102.096,7.471 101.922,6 L109.582,6 C109.728,7.476 109.801,8.974 109.801,10.485 C109.801,35.781 89.296,56.288 64,56.288 C38.702,56.288 18.198,35.781 18.198,10.485 C18.198,8.974 18.27,7.476 18.417,6" fill="#82D1F5"/>
    <path d="M64,82.913 C66.753,82.913 69.247,84.036 71.05,85.831 L71.06,85.831 C72.864,87.635 73.978,90.137 73.978,92.89 C73.978,95.649 72.864,98.148 71.06,99.952 C69.255,101.755 66.758,102.87 64,102.87 C61.245,102.87 58.743,101.755 56.939,99.952 L56.939,99.942 C55.144,98.138 54.021,95.645 54.021,92.89 C54.021,90.147 55.144,87.643 56.939,85.84 L56.948,85.831 C58.753,84.036 61.255,82.913 64,82.913 z M67.831,89.059 C66.853,88.091 65.492,87.479 64,87.479 C62.51,87.479 61.15,88.086 60.172,89.054 L60.162,89.064 C59.196,90.04 58.587,91.402 58.587,92.89 C58.587,94.384 59.199,95.745 60.167,96.723 L60.172,96.718 C61.15,97.695 62.51,98.302 64,98.302 C65.492,98.302 66.848,97.695 67.826,96.718 C68.804,95.741 69.412,94.384 69.412,92.89 C69.412,91.402 68.804,90.04 67.826,89.064 z" fill="#82D1F5"/>
    <path d="M52.162,88.141 L56.236,86.087 L58.29,90.16 L54.217,92.215 z M23.783,31.876 L25.427,35.134 L29.501,33.078 L27.856,29.822 z M27.487,39.211 L31.56,37.156 L33.619,41.235 L29.546,43.289 z M31.605,47.368 L35.68,45.313 L37.739,49.39 L33.666,51.446 z M35.72,55.524 L39.795,53.47 L41.85,57.547 L37.776,59.603 z M39.832,63.681 L43.905,61.625 L45.96,65.705 L41.886,67.759 z M43.942,71.838 L48.015,69.782 L50.07,73.86 L45.996,75.916 z M48.052,79.993 L52.124,77.939 L54.18,82.012 L50.107,84.068 z" fill="#82D1F5"/>
    <path d="M76.175,88.141 L72.101,86.087 L70.047,90.16 L74.119,92.215 z M104.553,31.876 L102.91,35.134 L98.835,33.078 L100.48,29.822 z M100.849,39.211 L96.776,37.156 L94.716,41.235 L98.79,43.289 z M96.73,47.368 L92.657,45.313 L90.598,49.39 L94.671,51.446 z M92.615,55.524 L88.542,53.47 L86.486,57.547 L90.561,59.603 z M88.505,63.681 L84.432,61.625 L82.376,65.705 L86.451,67.759 z M84.395,71.838 L80.322,69.782 L78.266,73.86 L82.339,75.916 z M80.285,79.993 L76.211,77.939 L74.156,82.012 L78.229,84.068 z" fill="#82D1F5"/>
  </g>
  <defs/>
</svg>
